<svg t="1657535424742" class="icon" viewBox="0 0 1024 1024" version="1.1" xmlns="http://www.w3.org/2000/svg" p-id="2670"><path d="M511.6 186.6c43.9 0 86.5 8.6 126.5 25.5 38.7 16.4 73.5 39.8 103.3 69.7 29.9 29.9 53.3 64.7 69.7 103.3 16.9 40 25.5 82.5 25.5 126.5s-8.6 86.5-25.5 126.5c-16.4 38.7-39.8 73.5-69.7 103.3-29.9 29.9-64.7 53.3-103.3 69.7-40 16.9-82.5 25.5-126.5 25.5-12.9 0-25.7-0.7-38.3-2.2 64-93.9 99.6-206.1 99.6-322.8s-35.6-228.8-99.6-322.8c12.6-1.5 25.4-2.2 38.3-2.2m0-124c-95.1 0-183.3 29.6-255.9 80 116.7 81.1 193.1 216.1 193.1 369s-76.4 287.9-193.1 369c72.6 50.4 160.8 80 255.9 80 248 0 449-201 449-449s-201.1-449-449-449z" p-id="2671"></path></svg>
