<svg t="1647425530245" class="icon" viewBox="0 0 1024 1024" version="1.1" xmlns="http://www.w3.org/2000/svg" p-id="16068" width="200" height="200"><path d="M512 0C229.226667 0 0 229.226667 0 512s229.226667 512 512 512 512-229.226667 512-512S794.773333 0 512 0z" fill="#434553" p-id="16069"></path><path d="M603.733333 392.426667c0 51.776-41.237333 93.738667-92.074666 93.738666-50.858667 0-92.074667-41.962667-92.074667-93.738666S460.8 298.666667 511.658667 298.666667c50.837333 0 92.074667 41.984 92.074666 93.76zM687.488 704H335.744c-5.546667 0-16.192-13.162667-15.722667-19.776a183.04 183.04 0 0 1 58.88-129.344 176.426667 176.426667 0 0 1 132.48-46.208c102.186667 0 184.917333 56.021333 192.298667 175.573333a16.704 16.704 0 0 1-3.434667 13.824 16.064 16.064 0 0 1-12.757333 5.930667z" fill="#FFFFFF" p-id="16070"></path></svg>
